<svg width="22" height="23" viewBox="0 0 22 23" fill="none" xmlns="http://www.w3.org/2000/svg">
<path d="M0.862815 1.26146L0.959642 1.1458C1.31467 0.779675 1.87022 0.7464 2.2617 1.04594L2.37386 1.1458L11.0001 10.0411L19.6263 1.1458C20.0169 0.743073 20.6499 0.743073 21.0405 1.1458C21.431 1.54852 21.431 2.20148 21.0405 2.6042L12.4147 11.5L21.0405 20.3958C21.3955 20.7619 21.4278 21.3348 21.1373 21.7385L21.0405 21.8542C20.6855 22.2203 20.1299 22.2536 19.7385 21.954L19.6263 21.8542L11.0001 12.9589L2.37386 21.8542C1.98334 22.2569 1.35016 22.2569 0.959642 21.8542C0.569122 21.4514 0.569122 20.7986 0.959642 20.3958L9.58542 11.5L0.959642 2.6042C0.604615 2.23808 0.572348 1.66518 0.862815 1.26146L0.959642 1.1458L0.862815 1.26146Z" fill="#212121"/>
</svg>
